<?xml version="1.0" encoding="utf-8"?>
<svg version="1.1" xmlns="http://www.w3.org/2000/svg" xmlns:xlink="http://www.w3.org/1999/xlink" x="0px" y="0px"
	 viewBox="0 0 30 24" style="enable-background:new 0 0 30 24;" xml:space="preserve">
<style type="text/css">
	.st0{fill:#C0E021;}
	.st1{display:none;}
	.st2{display:inline;fill:none;stroke:#000000;stroke-width:2;stroke-miterlimit:10;}
</style>
<g id="Camada_1">
	<g>
		<path class="st0" d="M29.5,2h-1C28.22,2,28,1.78,28,1.5v-1C28,0.22,27.78,0,27.5,0H2.51C2.23,0,2,0.23,2,0.51V1.5
			C2,1.78,1.78,2,1.5,2h-1C0.22,2,0,2.22,0,2.5V21.5C0,21.78,0.22,22,0.5,22h1C1.78,22,2,22.22,2,22.5v1C2,23.78,2.22,24,2.5,24h25
			c0.28,0,0.5-0.22,0.5-0.5v-1c0-0.28,0.22-0.5,0.5-0.5h1c0.28,0,0.5-0.22,0.5-0.5v-19C30,2.22,29.78,2,29.5,2z M2.5,22
			C2.22,22,2,21.78,2,21.5v-19C2,2.22,2.22,2,2.5,2h25C27.78,2,28,2.22,28,2.5v19c0,0.28-0.22,0.5-0.5,0.5H2.5z"/>
		<path class="st0" d="M25.73,4.58c-0.15-0.23-0.46-0.3-0.69-0.15l-9.77,6.22c-0.16,0.1-0.37,0.1-0.54,0L4.96,4.42
			C4.73,4.28,4.42,4.35,4.27,4.58L3.73,5.42C3.58,5.65,3.65,5.96,3.88,6.11l10.85,6.9c0.16,0.1,0.37,0.1,0.54,0l10.85-6.9
			c0.23-0.15,0.3-0.46,0.15-0.69L25.73,4.58z"/>
	</g>
</g>
<g id="Camada_2" class="st1">
</g>
</svg>
