<?xml version="1.0" encoding="utf-8"?>
<svg version="1.1" xmlns="http://www.w3.org/2000/svg" xmlns:xlink="http://www.w3.org/1999/xlink" x="0px" y="0px"
	 viewBox="0 0 28 28" style="enable-background:new 0 0 28 28;" xml:space="preserve">
<style type="text/css">
	.st0{fill:#C0E021;}
	.st1{display:none;}
	.st2{display:inline;fill:none;stroke:#000000;stroke-width:2;stroke-miterlimit:10;}
</style>
<g id="Camada_1">
	<g>
		<path class="st0" d="M6.91,5.36c-1.34,0-2.21,0.88-2.21,2.03c0,1.13,0.85,2.03,2.16,2.03h0.03h0c1.36,0,2.21-0.9,2.21-2.03
			C9.06,6.24,8.24,5.36,6.91,5.36z"/>
		<rect x="4.93" y="11.02" class="st0" width="3.9" height="11.74"/>
		<path class="st0" d="M18.41,10.75c-2.07,0-3,1.14-3.52,1.94v-1.66h-3.9c0.05,1.1,0,11.73,0,11.74h3.9v-6.56
			c0-0.35,0.03-0.7,0.13-0.95c0.28-0.7,0.92-1.43,2-1.43c1.41,0,1.98,1.08,1.98,2.65v6.28h3.9v-6.73
			C22.9,12.43,20.98,10.75,18.41,10.75z"/>
		<path class="st0" d="M26,0H2.5C2.22,0,2,0.22,2,0.5v1C2,1.78,1.78,2,1.5,2h-1C0.22,2,0,2.22,0,2.5V26c0,1.1,0.9,2,2,2h23.5
			c0.28,0,0.5-0.22,0.5-0.5v-1c0-0.28,0.22-0.5,0.5-0.5h1c0.27,0,0.5-0.22,0.5-0.5V2C28,0.9,27.1,0,26,0z M2,26V2.5
			C2,2.22,2.22,2,2.5,2H26v23.5c0,0.28-0.22,0.5-0.5,0.5H2z"/>
	</g>
</g>
<g id="Camada_2" class="st1">
</g>
</svg>
