<?xml version="1.0" encoding="utf-8"?>
<svg version="1.2" xmlns="http://www.w3.org/2000/svg" xmlns:xlink="http://www.w3.org/1999/xlink" x="0px" y="0px"
	 viewBox="46.5 0 98 45.18" xml:space="preserve">
<style type="text/css">
	.st0{fill:#C0E021;}
	.st1{fill:#141413;}
	.st3{display:inline;fill:none;stroke:#F20074;stroke-width:0.2695;stroke-miterlimit:10;}
	.st4{display:inline;fill:none;stroke:#F20074;stroke-width:0.3128;stroke-miterlimit:10;}
	.st5{display:inline;fill:none;stroke:#F20074;stroke-width:0.319;stroke-miterlimit:10;}
	.st6{display:inline;fill:none;stroke:#F20074;stroke-width:0.2835;stroke-miterlimit:10;}
	.st7{display:inline;fill:none;stroke:#F20074;stroke-width:0.2712;stroke-miterlimit:10;}
	.st8{display:inline;fill:none;stroke:#F20074;stroke-width:0.265;stroke-miterlimit:10;}
	.st9{display:inline;fill:none;stroke:#F20074;stroke-width:0.321;stroke-miterlimit:10;}
</style>
<g id="logotipo">
	<g>
		<g>
			<g>
				<path class="st1" d="M74.36,2.55c0.81,0,1.38-0.52,1.38-1.27S75.17,0,74.36,0c-0.81,0-1.37,0.52-1.37,1.27
					S73.55,2.55,74.36,2.55z"/>
				<path class="st1" d="M75.34,3.4h-1.96c-0.16,0-0.29,0.13-0.29,0.29v9.64c0,0.16,0.13,0.29,0.29,0.29h1.96
					c0.16,0,0.29-0.13,0.29-0.29V3.69C75.62,3.53,75.5,3.4,75.34,3.4z"/>
			</g>
			<path class="st1" d="M81.15,0.29c0-0.16-0.13-0.29-0.29-0.29H78.9c-0.16,0-0.29,0.13-0.29,0.29v13.04c0,0.16,0.13,0.29,0.29,0.29
				h1.96c0.16,0,0.29-0.13,0.29-0.29V0.29z"/>
			<path class="st1" d="M57.57,3.69c0-0.16-0.13-0.29-0.29-0.29h-1.92c-0.16,0-0.29,0.13-0.29,0.29v0.84c0,0.06-0.05,0.11-0.11,0.12
				l-0.26,0c-0.03,0-0.07-0.01-0.09-0.04h0L54.6,4.59c-0.65-0.98-1.71-1.48-3.14-1.48c-2.74,0-4.65,2.1-4.65,5.1v0.33
				c0,3.01,1.91,5.1,4.65,5.1c1.46,0,2.51-0.48,3.1-1.42l0.01-0.02c0.02-0.02,0.05-0.04,0.09-0.04h0.25c0.06,0,0.12,0.05,0.12,0.12
				v2.59c0,0.43-0.22,0.66-0.62,0.66h-6.48c-0.16,0-0.29,0.13-0.29,0.29v1.63c0,0.16,0.13,0.29,0.29,0.29h7.39
				c1.36,0,2.24-0.9,2.24-2.28V3.69z M55.07,8.49c0,1.77-1.15,2.96-2.86,2.96c-1.71,0-2.86-1.19-2.86-2.96V8.28
				c0-1.8,1.12-2.96,2.86-2.96c1.74,0,2.86,1.16,2.86,2.96V8.49z"/>
			<path class="st1" d="M70.11,3.69c0-0.16-0.13-0.29-0.29-0.29h-1.96c-0.16,0-0.29,0.13-0.29,0.29v4.9c0,1.92-0.96,3.07-2.57,3.07
				c-1.46,0-2.24-0.82-2.24-2.36V3.69c0-0.16-0.13-0.29-0.29-0.29h-1.96c-0.16,0-0.29,0.13-0.29,0.29V9.5
				c0,2.56,1.59,4.28,3.96,4.28c1.91,0,2.66-0.88,2.93-1.41l0-0.01c0-0.01,0.01-0.01,0.01-0.02c0-0.01,0.01-0.02,0.01-0.02
				c0.02-0.03,0.06-0.05,0.1-0.05h0.24c0.05,0,0.09,0.04,0.11,0.08h0.01l0,0.04v0.94c0,0.16,0.13,0.29,0.29,0.29h1.92
				c0.16,0,0.29-0.13,0.29-0.29V3.69z"/>
			<path class="st1" d="M91.76,13.61h1.96c0.16,0,0.29-0.13,0.29-0.29V7.51c0-2.56-1.59-4.28-3.96-4.28c-1.8,0-2.58,0.74-2.91,1.36
				v0.03l-0.02,0c-0.02,0.02-0.05,0.04-0.09,0.04h-0.24c-0.07,0-0.12-0.05-0.12-0.12V0.29c0-0.16-0.13-0.29-0.29-0.29h-1.96
				c-0.16,0-0.29,0.13-0.29,0.29v13.04c0,0.16,0.13,0.29,0.29,0.29h1.96c0.16,0,0.29-0.13,0.29-0.29v-4.9
				c0-1.92,0.96-3.07,2.57-3.07c1.46,0,2.24,0.82,2.24,2.36v5.61C91.48,13.49,91.61,13.61,91.76,13.61z"/>
			<path class="st1" d="M106.44,8.95V8.38c0-3.15-1.99-5.27-4.96-5.27c-3.1,0-5.1,2.07-5.1,5.27v0.25c0,3.2,2.02,5.27,5.15,5.27
				c0.48,0,2.32-0.08,2.97-0.15c0.17-0.02,0.29-0.14,0.29-0.29v-1.49c0-0.16-0.13-0.29-0.29-0.29c-0.02,0-2.18-0.01-2.89,0
				c-1.46,0.02-2.55-0.94-2.65-2.34c0.01-0.07,0.06-0.12,0.12-0.12h7.08C106.31,9.24,106.44,9.11,106.44,8.95z M103.73,7.36h-4.62
				c-0.07,0-0.12-0.05-0.12-0.12c0-0.01,0-0.01,0-0.02c0.23-1.21,1.13-1.9,2.47-1.9c1.31,0,2.22,0.73,2.39,1.91c0,0,0,0.01,0,0.02
				C103.85,7.31,103.8,7.36,103.73,7.36z"/>
			<path class="st1" d="M108.87,13.33c0,0.16,0.13,0.29,0.29,0.29h1.96c0.16,0,0.29-0.13,0.29-0.29V7.8c0-1.37,0.87-2.19,2.32-2.19
				h0.96c0.16,0,0.29-0.13,0.29-0.29V3.65c0-0.16-0.13-0.29-0.29-0.29h-0.92c-0.69,0-1.58,0.2-1.94,1.13
				c-0.02,0.04-0.06,0.07-0.11,0.07h-0.24c-0.07,0-0.12-0.05-0.12-0.12V3.69c0-0.16-0.13-0.29-0.29-0.29h-1.92
				c-0.16,0-0.29,0.13-0.29,0.29V13.33z"/>
			<path class="st1" d="M129.65,13.61h1.96c0.16,0,0.29-0.13,0.29-0.29V6.89c0-2.69-1.76-3.65-3.4-3.65c-1.34,0-2.22,0.47-2.76,1.47
				c-0.02,0.04-0.06,0.07-0.11,0.07h-0.28c-0.05,0-0.09-0.03-0.11-0.07l-0.01-0.01c0-0.01-0.01-0.01-0.01-0.02
				c-0.54-0.96-1.42-1.43-2.7-1.43c-1.54,0-2.2,0.74-2.45,1.19c-0.01,0.01-0.01,0.02-0.02,0.03l-0.01,0.02
				c-0.02,0.03-0.06,0.05-0.1,0.05h-0.25c-0.07,0-0.12-0.05-0.12-0.12V3.69c0-0.16-0.13-0.29-0.29-0.29h-1.92
				c-0.16,0-0.29,0.13-0.29,0.29v9.64c0,0.16,0.13,0.29,0.29,0.29h1.96c0.16,0,0.29-0.13,0.29-0.29V7.58c0-1.44,0.68-2.24,1.9-2.24
				c1.08,0,1.7,0.63,1.7,1.74v6.25c0,0.16,0.13,0.29,0.29,0.29h1.96c0.16,0,0.29-0.13,0.29-0.29V7.58c0-1.44,0.68-2.24,1.9-2.24
				c1.08,0,1.7,0.63,1.7,1.74v6.25C129.36,13.49,129.49,13.61,129.65,13.61z"/>
			<path class="st1" d="M144.04,9.24c0.16,0,0.29-0.13,0.29-0.29V8.38c0-3.15-1.99-5.27-4.96-5.27c-3.1,0-5.1,2.07-5.1,5.27v0.25
				c0,3.2,2.02,5.27,5.15,5.27c0.48,0,2.32-0.08,2.97-0.15c0.17-0.02,0.29-0.14,0.29-0.29v-1.49c0-0.16-0.13-0.29-0.29-0.29
				c-0.02,0-2.18-0.01-2.89,0c-1.46,0.02-2.55-0.94-2.65-2.34c0.01-0.07,0.06-0.12,0.12-0.12H144.04z M136.88,7.25
				c0-0.01,0-0.01,0-0.02c0.23-1.21,1.13-1.9,2.47-1.9c1.31,0,2.22,0.73,2.39,1.91c0,0,0,0.01,0,0.02c0,0.07-0.05,0.12-0.12,0.12
				H137C136.93,7.36,136.88,7.31,136.88,7.25z"/>
		</g>
		<g>
			<path class="st1" d="M96.79,34.33c3.2,0,5.35-2.1,5.35-5.23v-0.33c0-3.13-2.15-5.23-5.35-5.23c-3.2,0-5.35,2.1-5.35,5.23v0.33
				C91.44,32.23,93.59,34.33,96.79,34.33z M93.97,28.83c0-1.85,1.11-3.05,2.82-3.05s2.82,1.2,2.82,3.05v0.21
				c0,1.85-1.11,3.05-2.82,3.05s-2.82-1.2-2.82-3.05V28.83z"/>
			<path class="st1" d="M80.73,25.63v-1.51c0-0.01,0-0.02,0-0.03c-0.01-0.13-0.11-0.24-0.24-0.25l-2.46,0
				c-0.07,0-0.12-0.05-0.12-0.12v-3.03c-0.01-0.14-0.14-0.25-0.29-0.25h-1.97c-0.15,0-0.27,0.11-0.29,0.26c0,0.01,0,3.03,0,3.03
				c0,0.06-0.05,0.12-0.12,0.12H73.2c-0.13,0.02-0.24,0.14-0.24,0.28v1.51c0,0.15,0.11,0.27,0.26,0.29l2.04,0
				c0.07,0,0.12,0.05,0.12,0.12v5.73c0,1.39,0.88,2.29,2.24,2.29h2.58c0.15,0,0.27-0.11,0.29-0.26c0-0.01,0-0.02,0-0.03v-1.51
				c0-0.01,0-0.02,0-0.03c-0.01-0.13-0.11-0.23-0.24-0.25c-0.01,0-0.03,0-0.04,0h-1.67c-0.4,0-0.62-0.23-0.62-0.66v-5.27
				c0-0.06,0.05-0.12,0.12-0.12h2.45c0.13-0.01,0.24-0.12,0.25-0.25C80.73,25.65,80.73,25.64,80.73,25.63z"/>
			<path class="st1" d="M89.92,25.63v-1.51c0-0.01,0-0.02,0-0.03c-0.01-0.13-0.11-0.24-0.24-0.25l-2.46,0
				c-0.07,0-0.12-0.05-0.12-0.12v-3.03c-0.01-0.14-0.14-0.25-0.29-0.25h-1.97c-0.15,0-0.27,0.11-0.29,0.26c0,0.01,0,3.03,0,3.03
				c0,0.06-0.05,0.12-0.12,0.12h-2.06c-0.13,0.02-0.24,0.14-0.24,0.28v1.51c0,0.15,0.11,0.27,0.26,0.29l2.04,0
				c0.07,0,0.12,0.05,0.12,0.12v5.73c0,1.39,0.88,2.29,2.24,2.29h2.58c0.15,0,0.27-0.11,0.29-0.26c0-0.01,0-0.02,0-0.03v-1.51
				c0-0.01,0-0.02,0-0.03c-0.01-0.13-0.11-0.23-0.24-0.25c-0.01,0-0.03,0-0.04,0h-1.67c-0.4,0-0.62-0.23-0.62-0.66v-5.27
				c0-0.06,0.05-0.12,0.12-0.12h2.45c0.13-0.01,0.24-0.12,0.25-0.25C89.92,25.65,89.92,25.64,89.92,25.63z"/>
			<path class="st1" d="M50.51,32.8c0.04,0,0.08,0.03,0.1,0.05c0.62,1,1.66,1.48,3.18,1.48c2.22,0,4.61-1.64,4.61-5.23v-0.33
				c0-3.59-2.39-5.23-4.61-5.23c-1.5,0-2.56,0.48-3.14,1.42c-0.02,0.03-0.06,0.05-0.1,0.05h-0.25c-0.07,0-0.12-0.05-0.12-0.12v-4.18
				c0-0.16-0.13-0.29-0.29-0.29h-1.97c-0.15,0-0.27,0.11-0.29,0.26l0,13.11c0.01,0.14,0.14,0.25,0.29,0.25h1.92
				c0.16,0,0.29-0.13,0.29-0.29V32.9c0.01-0.06,0.06-0.1,0.12-0.1H50.51z M50.15,29.04v-0.21c0-1.9,1.1-3.09,2.86-3.09
				c1.76,0,2.86,1.18,2.86,3.09v0.21c0,1.88-1.12,3.09-2.86,3.09C51.27,32.13,50.15,30.92,50.15,29.04z"/>
			<path class="st1" d="M112.08,34.04h1.97c0.15,0,0.27-0.11,0.29-0.26c0-0.01,0-0.02,0-0.03v-5.82c0-2.56-1.59-4.28-3.97-4.28
				c-1.92,0-2.66,0.89-2.94,1.42c-0.01,0.01-0.01,0.02-0.02,0.03c-0.01,0.04-0.06,0.07-0.11,0.07h-0.24c-0.07,0-0.12-0.05-0.12-0.12
				v-0.94c0-0.01,0-0.02,0-0.03c-0.02-0.15-0.14-0.26-0.29-0.26h-1.92c-0.16,0-0.29,0.13-0.29,0.29v9.64c0,0.16,0.13,0.29,0.29,0.29
				h1.97c0.15,0,0.27-0.11,0.29-0.26c0-0.01,0-0.02,0-0.03v-4.9c0-1.92,0.96-3.07,2.57-3.07c1.46,0,2.24,0.82,2.24,2.36v5.61
				C111.8,33.91,111.93,34.04,112.08,34.04z"/>
			<path class="st1" d="M70.74,23.83h-2.01c-0.12,0.02-0.22,0.13-0.23,0.26c-0.01,0.01-0.01,0.02-0.01,0.03v0.84
				c0,0.06-0.05,0.12-0.12,0.12h-0.24c-0.03,0-0.06-0.01-0.08-0.03c-0.01-0.01-0.02-0.03-0.02-0.03c-0.62-0.99-1.66-1.48-3.18-1.48
				c-2.21,0-4.61,1.64-4.61,5.24v0.33c0,3.59,2.39,5.23,4.61,5.23c2,0,2.72-0.62,3.18-1.57c0.01-0.04,0.06-0.07,0.1-0.07h0.24
				c0.07,0,0.12,0.06,0.12,0.12v0.94c0,0.16,0.13,0.29,0.29,0.29h1.92c0.16,0,0.29-0.13,0.29-0.29v-9.66
				C70.97,23.96,70.87,23.85,70.74,23.83z M68.49,29.04c0,1.9-1.09,3.08-2.85,3.08c-1.76,0-2.85-1.18-2.85-3.08v-0.21
				c0-1.87,1.12-3.08,2.85-3.08s2.85,1.21,2.85,3.08V29.04z"/>
			<g>
				<path class="st1" d="M118.34,22.98c0.81,0,1.38-0.52,1.38-1.27c0-0.75-0.57-1.27-1.38-1.27c-0.81,0-1.37,0.52-1.37,1.27
					C116.97,22.45,117.53,22.98,118.34,22.98z"/>
				<path class="st1" d="M119.32,23.83h-1.96c-0.16,0-0.29,0.13-0.29,0.29v9.64c0,0.16,0.13,0.29,0.29,0.29h1.96
					c0.16,0,0.29-0.13,0.29-0.29v-9.64C119.61,23.96,119.48,23.83,119.32,23.83z"/>
			</g>
		</g>
		<g>
			<path class="st1" d="M47.63,40.84h0.81l0.42,3.7h0.11l0.54-3.7h1.41l0.54,3.7h0.11l0.42-3.7h0.81l-0.57,4.26h-1.41l-0.56-3.78
				h-0.11l-0.56,3.78H48.2L47.63,40.84z"/>
			<path class="st1" d="M55.33,40.84h2.78v0.73h-1.96v1.02h1.79v0.73h-1.79v1.05h2v0.73h-2.82V40.84z"/>
			<path class="st1" d="M60.78,40.84H63c0.79,0,1.31,0.41,1.31,1.08v0.06c0,0.59-0.4,0.83-0.66,0.91V43
				c0.27,0.07,0.69,0.31,0.69,0.92v0.06c0,0.71-0.54,1.12-1.31,1.12h-2.25V40.84z M62.91,42.59c0.34,0,0.58-0.18,0.58-0.48v-0.06
				c0-0.3-0.23-0.48-0.58-0.48h-1.32v1.02H62.91z M62.93,44.37c0.35,0,0.59-0.18,0.59-0.49v-0.06c0-0.32-0.23-0.49-0.59-0.49h-1.34
				v1.05H62.93z"/>
			<path class="st1" d="M71.89,40.84h1.78c1.16,0,1.78,0.58,1.78,1.73v0.8c0,1.14-0.62,1.73-1.78,1.73h-1.78V40.84z M73.68,44.37
				c0.65,0,0.95-0.35,0.95-0.97v-0.85c0-0.62-0.3-0.97-0.95-0.97H72.7v2.8H73.68z"/>
			<path class="st1" d="M78.16,40.84h2.78v0.73h-1.96v1.02h1.79v0.73h-1.79v1.05h2v0.73h-2.82V40.84z"/>
			<path class="st1" d="M83.31,40.84h0.84l0.91,3.74h0.09l0.91-3.74h0.84l-1.1,4.26h-1.4L83.31,40.84z"/>
			<path class="st1" d="M89.46,40.84h2.78v0.73h-1.96v1.02h1.79v0.73h-1.79v1.05h2v0.73h-2.82V40.84z"/>
			<path class="st1" d="M95.02,40.84h0.81v3.53h1.98v0.73h-2.79V40.84z"/>
			<path class="st1" d="M99.9,43.48v-1.02c0-1.09,0.69-1.7,1.78-1.7s1.78,0.61,1.78,1.7v1.02c0,1.09-0.69,1.7-1.78,1.7
				S99.9,44.58,99.9,43.48z M102.64,43.51v-1.07c0-0.58-0.36-0.96-0.96-0.96c-0.61,0-0.96,0.38-0.96,0.96v1.07
				c0,0.58,0.36,0.96,0.96,0.96C102.28,44.47,102.64,44.09,102.64,43.51z"/>
			<path class="st1" d="M105.96,40.84h1.78c0.81,0,1.38,0.51,1.38,1.31v0.09c0,0.8-0.59,1.31-1.38,1.31h-0.96v1.56h-0.81V40.84z
				 M107.66,42.81c0.38,0,0.65-0.23,0.65-0.59v-0.06c0-0.36-0.26-0.59-0.65-0.59h-0.88v1.24H107.66z"/>
			<path class="st1" d="M111.47,40.84h2.78v0.73h-1.96v1.02h1.79v0.73h-1.79v1.05h2v0.73h-2.82V40.84z"/>
			<path class="st1" d="M116.57,40.84h1.88c0.81,0,1.35,0.45,1.35,1.14v0.07c0,0.51-0.28,0.82-0.64,0.97v0.11
				c0.33,0.02,0.52,0.24,0.52,0.58v1.39h-0.82v-1.28c0-0.19-0.09-0.33-0.33-0.33h-1.14v1.6h-0.81V40.84z M118.36,42.76
				c0.38,0,0.62-0.23,0.62-0.57v-0.06c0-0.34-0.22-0.57-0.62-0.57h-0.98v1.19H118.36z"/>
		</g>
	</g>
</g>
</svg>