<?xml version="1.0" encoding="utf-8"?>
<svg version="1.1" xmlns="http://www.w3.org/2000/svg" xmlns:xlink="http://www.w3.org/1999/xlink" x="0px" y="0px"
	 viewBox="0 0 32 26" style="enable-background:new 0 0 32 26;" xml:space="preserve">
<style type="text/css">
	.st0{fill:#C0E021;}
	.st1{display:none;}
	.st2{display:inline;fill:none;stroke:#000000;stroke-width:2;stroke-miterlimit:10;}
</style>
<g id="Camada_1">
	<g>
		<path class="st0" d="M18.5,10h10c0.28,0,0.5-0.22,0.5-0.5v-1C29,8.22,28.78,8,28.5,8h-10C18.22,8,18,8.22,18,8.5v1
			C18,9.78,18.22,10,18.5,10z"/>
		<path class="st0" d="M18.5,18h8c0.28,0,0.5-0.22,0.5-0.5v-1c0-0.28-0.22-0.5-0.5-0.5h-8c-0.28,0-0.5,0.22-0.5,0.5v1
			C18,17.78,18.22,18,18.5,18z"/>
		<path class="st0" d="M31.5,24h-13c-0.28,0-0.5,0.22-0.5,0.5v1c0,0.28,0.22,0.5,0.5,0.5h13c0.28,0,0.5-0.22,0.5-0.5v-1
			C32,24.22,31.78,24,31.5,24z"/>
		<path class="st0" d="M8,13c2.76,0,5-2.24,5-5s-2.24-5-5-5S3,5.24,3,8S5.24,13,8,13z M8,5c1.65,0,3,1.35,3,3s-1.35,3-3,3
			S5,9.65,5,8S6.35,5,8,5z"/>
		<path class="st0" d="M13,15H2.5C2.22,15,2,15.22,2,15.5v1C2,16.78,1.78,17,1.5,17h-1C0.23,17,0,17.23,0,17.5v5
			C0,22.78,0.22,23,0.5,23h1C1.78,23,2,22.78,2,22.5v-5C2,17.22,2.22,17,2.5,17H13c0.55,0,1,0.45,1,1v4.5c0,0.27,0.22,0.5,0.5,0.5
			h1.01c0.27,0,0.5-0.22,0.5-0.5V18C16,16.34,14.66,15,13,15z"/>
		<path class="st0" d="M18.5,2h12C30.78,2,31,1.78,31,1.5v-1C31,0.22,30.78,0,30.5,0h-12C18.22,0,18,0.22,18,0.5v1
			C18,1.78,18.22,2,18.5,2z"/>
	</g>
</g>
<g id="Camada_2" class="st1">
	<path class="st2" d="M15.51,3.68l-4.9-2.58c-0.39-0.19-0.85-0.12-1.16,0.19L3.29,5.64C3.11,5.82,3,6.08,3,6.34v8.03
		c0,0.3,0.14,0.59,0.37,0.78l12,11.63c0.37,0.3,0.9,0.3,1.27,0l12-11.63c0.23-0.19,0.37-0.48,0.37-0.78V6.4
		c0-0.3-0.13-0.58-0.36-0.77l-7.13-4.4c-0.33-0.27-0.79-0.31-1.16-0.09l-3.88,2.5C16.18,3.82,15.81,3.84,15.51,3.68z"/>
</g>
</svg>
